<svg width="97" height="98" xmlns="http://www.w3.org/2000/svg" xmlns:xlink="http://www.w3.org/1999/xlink" xml:space="preserve" overflow="hidden"><g transform="translate(-1505 -346)"><g><g><g><g><path d="M1526.9 404.6 1546.1 385.4 1535.4 385.4C1538.9 378.6 1546 373.9 1554.2 373.9 1559.5 373.9 1564.4 375.9 1568.1 379.2L1587.6 379.2C1581.7 366.6 1568.9 358 1554.2 358 1537.1 358 1522.7 369.6 1518.5 385.4L1507.7 385.4 1526.9 404.6Z" fill="#674AFF" fill-rule="nonzero" fill-opacity="1"/><path d="M1600.6 404.6 1581.4 385.4 1562.2 404.6 1573 404.6C1569.5 411.4 1562.4 416.1 1554.2 416.1 1548.9 416.1 1544 414.1 1540.3 410.8L1520.7 410.8C1526.7 423.4 1539.4 432 1554.2 432 1571.3 432 1585.7 420.4 1589.9 404.6L1600.6 404.6Z" fill="#674AFF" fill-rule="nonzero" fill-opacity="1"/></g></g></g></g></g></svg>