<svg width="97" height="97" xmlns="http://www.w3.org/2000/svg" xmlns:xlink="http://www.w3.org/1999/xlink" xml:space="preserve" overflow="hidden"><g transform="translate(-1504 -853)"><g><g><g><g><path d="M1567.93 904C1564.55 901.12 1560.16 899.77 1556 898.47L1556 874.29C1560.04 874.674 1563.81 876.469 1566.66 879.36L1571.46 874.76C1567.35 870.581 1561.85 868.064 1556 867.69L1556 859 1550 859 1550 868.07C1547.95 868.47 1545.96 869.178 1544.12 870.17 1536.54 874.3 1532.67 884 1535.78 892.17 1538.19 898.47 1544 901.28 1550 903.39L1550 929.57C1545.35 929 1541.49 926.33 1538.29 923L1533.49 927.59C1535.78 930.183 1538.5 932.353 1541.54 934 1544.2 935.264 1547.07 936.02 1550 936.23L1550 945 1556 945 1556 936C1562.88 934.85 1569.2 930.62 1571.92 924 1574.64 917.38 1573.65 908.89 1567.93 904ZM1545 893.73C1539.5 889.09 1540.84 880.11 1546.67 876.39 1547.7 875.727 1548.82 875.212 1550 874.86L1550 896.55C1548.19 895.891 1546.5 894.939 1545 893.73ZM1563.09 925.55C1561.14 927.458 1558.68 928.76 1556 929.3L1556 905.41C1560 906.78 1564.59 908.52 1566.22 912.78 1567.85 917.04 1566.21 922.37 1563.09 925.55Z" fill="#674AFF" fill-rule="nonzero" fill-opacity="1"/></g></g></g></g></g></svg>