<svg width="108" height="107" xmlns="http://www.w3.org/2000/svg" xmlns:xlink="http://www.w3.org/1999/xlink" xml:space="preserve" overflow="hidden"><g transform="translate(-972 -341)"><g><g><g><g><path d="M61.25 24.0625C61.25 28.895 57.3325 32.8125 52.5 32.8125 47.6675 32.8125 43.75 28.895 43.75 24.0625 43.75 19.23 47.6675 15.3125 52.5 15.3125 57.3325 15.3125 61.25 19.23 61.25 24.0625Z" fill="#674AFF" fill-rule="nonzero" fill-opacity="1" transform="matrix(-1.00952 1.23631e-16 -1.22465e-16 -1 1079 447)"/><path d="M61.25 80.9375C61.25 85.77 57.3325 89.6875 52.5 89.6875 47.6675 89.6875 43.75 85.77 43.75 80.9375 43.75 76.105 47.6675 72.1875 52.5 72.1875 57.3325 72.1875 61.25 76.105 61.25 80.9375Z" fill="#674AFF" fill-rule="nonzero" fill-opacity="1" transform="matrix(-1.00952 1.23631e-16 -1.22465e-16 -1 1079 447)"/><path d="M89.6875 24.0625C89.6875 28.895 85.77 32.8125 80.9375 32.8125 76.105 32.8125 72.1875 28.895 72.1875 24.0625 72.1875 19.23 76.105 15.3125 80.9375 15.3125 85.77 15.3125 89.6875 19.23 89.6875 24.0625Z" fill="#674AFF" fill-rule="nonzero" fill-opacity="1" transform="matrix(-1.00952 1.23631e-16 -1.22465e-16 -1 1079 447)"/><path d="M79.8438 37.1875 79.8438 50.3125 54.6875 50.3125 54.6875 36.9906C53.241 37.2531 51.759 37.2531 50.3125 36.9906L50.3125 50.3125 25.1562 50.3125 25.1562 37.1875C24.7953 37.1875 24.4344 37.1875 24.0625 37.1875 22.9554 37.1805 21.8533 37.0373 20.7812 36.7609L20.7812 54.6875 50.3125 54.6875 50.3125 68.0094C51.759 67.7469 53.241 67.7469 54.6875 68.0094L54.6875 54.6875 84.2188 54.6875 84.2188 36.7609C83.1467 37.0373 82.0446 37.1805 80.9375 37.1875 80.5656 37.1875 80.2047 37.1875 79.8438 37.1875Z" fill="#674AFF" fill-rule="nonzero" fill-opacity="1" transform="matrix(-1.00952 1.23631e-16 -1.22465e-16 -1 1079 447)"/><path d="M32.8125 24.0625C32.8125 28.895 28.895 32.8125 24.0625 32.8125 19.23 32.8125 15.3125 28.895 15.3125 24.0625 15.3125 19.23 19.23 15.3125 24.0625 15.3125 28.895 15.3125 32.8125 19.23 32.8125 24.0625Z" fill="#674AFF" fill-rule="nonzero" fill-opacity="1" transform="matrix(-1.00952 1.23631e-16 -1.22465e-16 -1 1079 447)"/></g></g></g></g></g></svg>