<svg width="96" height="96" xmlns="http://www.w3.org/2000/svg" xmlns:xlink="http://www.w3.org/1999/xlink" xml:space="preserve" overflow="hidden"><g transform="translate(-912 -492)"><g><path d="M936.9 554.9 934.1 552.1 942.7 543.5 934.1 534.9 936.9 532.1 948.3 543.5Z" fill="#674AFF" fill-rule="nonzero" fill-opacity="1"/><path d="M920 509 920 571 1000 571 1000 509 920 509ZM989 515C990.1 515 991 515.9 991 517 991 518.1 990.1 519 989 519 987.9 519 987 518.1 987 517 987 515.9 987.9 515 989 515ZM982 515C983.1 515 984 515.9 984 517 984 518.1 983.1 519 982 519 980.9 519 980 518.1 980 517 980 515.9 980.9 515 982 515ZM975 515C976.1 515 977 515.9 977 517 977 518.1 976.1 519 975 519 973.9 519 973 518.1 973 517 973 515.9 973.9 515 975 515ZM994 565 926 565 926 525 994 525 994 565Z" fill="#674AFF" fill-rule="nonzero" fill-opacity="1"/><path d="M950 551 966 551 966 555 950 555Z" fill="#674AFF" fill-rule="nonzero" fill-opacity="1"/></g></g></svg>