<svg width="98" height="97" xmlns="http://www.w3.org/2000/svg" xmlns:xlink="http://www.w3.org/1999/xlink" xml:space="preserve" overflow="hidden"><g transform="translate(-1118 -493)"><g><g><g><g><path d="M1200 545 1193.1 533 1193.1 532.5C1193.7 515.9 1180.7 502 1164.1 501.4 1147.5 500.8 1133.6 513.7 1133 530.3 1133 531 1133 531.8 1133 532.5 1133 542 1137.3 550.9 1144.8 556.7L1144.8 582 1176.4 582 1176.4 570 1181.3 570C1187.8 570 1193.1 564.7 1193.1 558.2 1193.1 558.1 1193.1 558.1 1193.1 558L1193.1 552 1197.5 552C1200.1 551.7 1202.4 548.7 1200 545ZM1137.5 522.5 1143 522.5 1143 518.5C1141.9 517.7 1141.7 516.1 1142.5 515 1143.3 513.9 1144.9 513.7 1146 514.5 1147.1 515.3 1147.3 516.9 1146.5 518 1146.4 518.2 1146.2 518.4 1146 518.5L1146 522.5 1150 522.5 1150 529.5C1151.1 530.3 1151.3 531.9 1150.5 533 1149.7 534.1 1148.1 534.3 1147 533.5 1145.9 532.7 1145.7 531.1 1146.5 530 1146.6 529.8 1146.8 529.6 1147 529.5L1147 525.5 1136.6 525.5C1136.9 524.5 1137.1 523.5 1137.5 522.5ZM1165.3 539.4C1163.9 539.4 1162.8 538.3 1162.8 536.9 1162.8 536.8 1162.8 536.6 1162.8 536.5L1160.2 533.9 1156 538.1 1156 545.5C1157.1 546.3 1157.3 547.9 1156.5 549 1155.7 550.1 1154.1 550.3 1153 549.5 1151.9 548.7 1151.7 547.1 1152.5 546 1152.6 545.8 1152.8 545.6 1153 545.5L1153 544.5 1146.3 544.5 1141.6 539C1140.2 539.1 1139 538.1 1138.9 536.7 1138.8 535.3 1139.8 534.1 1141.2 534 1142.6 533.9 1143.8 534.9 1143.9 536.3 1143.9 536.5 1143.9 536.8 1143.9 537L1147.7 541.5 1153 541.5 1153 536.9 1158.1 531.8 1155 528.6 1155 510.5C1153.9 509.7 1153.7 508.1 1154.5 507 1155.3 505.9 1156.9 505.7 1158 506.5 1159.1 507.3 1159.3 508.9 1158.5 510 1158.4 510.2 1158.2 510.4 1158 510.5L1158 513.5 1166 513.5 1166 520.5C1167.1 521.3 1167.3 522.9 1166.5 524 1165.7 525.1 1164.1 525.3 1163 524.5 1161.9 523.7 1161.7 522.1 1162.5 521 1162.6 520.8 1162.8 520.6 1163 520.5L1163 516.5 1158 516.5 1158 527.4 1165 534.4C1165.1 534.4 1165.2 534.4 1165.3 534.4 1166.7 534.4 1167.8 535.5 1167.8 536.9 1167.8 538.3 1166.7 539.4 1165.3 539.4ZM1177.5 519.2C1176.1 519.2 1175 518.1 1175 516.7 1175 516.6 1175 516.6 1175 516.5L1171 512.9 1171 505.6C1172 505.9 1173 506.3 1174 506.7L1174 511.6 1177 514.3C1177.2 514.3 1177.3 514.3 1177.5 514.3 1178.9 514.3 1180 515.4 1180 516.8 1180 518.2 1178.9 519.2 1177.5 519.2Z" fill="#674AFF" fill-rule="nonzero" fill-opacity="1"/></g></g></g></g></g></svg>